<?xml version="1.0" encoding="utf-8"?>
<!-- Generator: Adobe Illustrator 19.2.1, SVG Export Plug-In . SVG Version: 6.00 Build 0)  -->
<svg version="1.1" id="Layer_1" xmlns="http://www.w3.org/2000/svg" xmlns:xlink="http://www.w3.org/1999/xlink" x="0px" y="0px"
	 viewBox="0 0 424 74" style="enable-background:new 0 0 424 74;" xml:space="preserve">
<style type="text/css">
	.st0{fill:#2886AF;}
	.st1{fill:#3AB4D4;}
</style>
<g>
	<polygon class="st0" points="160.3,3.4 160.3,70.6 218,70.6 218,58.6 174.7,58.6 174.7,43 210.8,43 210.8,30.9 174.7,30.9 
		174.7,15.4 218,15.4 218,3.4 	"/>
	<g>
		<path class="st0" d="M252.8,58.4h11c7.9,0,14.3-2.3,18.5-6.7c3.8-3.9,5.8-9.4,5.6-15.4c-0.3-10.1-6.8-20.9-24.1-20.9h-11V58.4z
			 M238.4,70.6V3.4h25.4C276,3.4,286,7,292.9,13.7c5.9,5.8,9.3,13.9,9.5,22.8c0.2,9-3,17.4-9,23.5c-6.9,7-17.1,10.7-29.5,10.7h-25.5
			V70.6z"/>
	</g>
	<polygon class="st0" points="320.2,70.6 334.6,70.6 334.6,3.4 320.2,3.4 320.2,36.7 	"/>
	<path class="st0" d="M34,3.4c-3.7,0-31.5,0-31.5,0v67.2H17V49.5h17c19.4,0,28.3-12.2,28.3-23.7S53.4,3.4,34,3.4z M34,37.5H17V15.4
		h17c9.6,0,13.9,4.7,13.9,10.4S43.5,37.5,34,37.5z"/>
	<path class="st0" d="M140.1,70.6l-18-22.5c12.1-3.5,17.8-13.2,17.8-22.3c0-11.5-8.8-22.4-28.3-22.4c-3.7,0-31.5,0-31.5,0v67.2h14.5
		V49.5h12.5l16.1,21.1L140.1,70.6L140.1,70.6z M94.6,15.4h17c9.6,0,13.9,4.7,13.9,10.4c0,5.7-4.4,11.7-13.9,11.7h-17V15.4z"/>
	<g>
		<polygon class="st0" points="395.4,34.5 419.5,3.4 402.5,3.4 385,26.5 367.5,3.4 350.7,3.4 374.7,34.5 		"/>
		<polygon class="st1" points="374.7,39.4 350.6,70.6 367.5,70.6 385.1,47.4 402.6,70.6 419.5,70.6 395.3,39.4 		"/>
	</g>
</g>
</svg>
